<?xml version="1.0" standalone="no"?>
<!DOCTYPE svg PUBLIC "-//W3C//DTD SVG 20010904//EN"
 "http://www.w3.org/TR/2001/REC-SVG-20010904/DTD/svg10.dtd">
<svg version="1.0" xmlns="http://www.w3.org/2000/svg"
 width="160.000000pt" height="160.000000pt" viewBox="0 0 160.000000 160.000000"
 preserveAspectRatio="xMidYMid meet">
<metadata>
Created by potrace 1.14, written by Peter Selinger 2001-2017
</metadata>
<g transform="translate(0.000000,160.000000) scale(0.100000,-0.100000)"
fill="#000000" stroke="none">
<path d="M781 1564 c-18 -8 -43 -12 -55 -9 -58 13 -77 13 -91 -2 -9 -9 -25
-13 -37 -10 -14 4 -30 -3 -50 -24 -16 -16 -34 -29 -39 -29 -6 0 -9 -8 -7 -17
2 -15 -4 -18 -32 -16 -38 2 -72 -21 -63 -43 3 -8 -5 -16 -24 -20 -37 -9 -74
-34 -67 -45 3 -5 1 -9 -3 -9 -5 0 -17 -6 -27 -13 -15 -11 -17 -17 -7 -35 10
-19 9 -22 -6 -23 -37 -3 -43 -4 -42 -12 0 -5 -7 -14 -15 -20 -20 -15 -33 -77
-17 -77 9 0 9 -5 1 -20 -6 -11 -18 -20 -26 -20 -39 0 -49 -38 -30 -111 6 -21
1 -32 -25 -58 -31 -31 -31 -34 -20 -72 6 -21 15 -39 20 -39 5 0 7 -17 5 -37
-1 -20 4 -53 13 -72 8 -20 15 -53 14 -73 -2 -35 5 -43 32 -39 10 1 9 -7 -4
-30 -13 -26 -2 -59 20 -59 24 0 41 -20 41 -47 0 -21 10 -28 33 -24 5 1 11 -8
14 -19 3 -12 14 -20 28 -20 12 0 30 -9 39 -19 10 -11 25 -17 37 -14 12 4 19 0
19 -10 0 -17 21 -27 56 -27 13 0 24 -4 24 -10 0 -5 11 -17 25 -26 20 -13 28
-14 40 -4 8 6 20 8 26 4 7 -4 22 -8 33 -10 55 -8 99 -24 110 -39 8 -12 12 -51
11 -116 -1 -54 2 -104 6 -110 11 -18 91 -27 129 -14 l34 11 1 114 c0 107 1
113 23 121 12 5 22 13 22 19 0 5 7 10 15 10 7 0 18 7 23 16 8 15 11 15 31 -5
28 -28 55 -27 79 3 16 21 25 24 60 19 28 -4 42 -2 42 6 0 6 13 11 28 11 20 0
35 9 51 31 15 21 26 27 30 20 9 -14 59 33 72 68 6 13 15 21 23 18 13 -5 66 37
66 53 0 5 -6 15 -13 22 -22 23 -14 80 16 120 21 27 26 42 20 55 -5 10 -8 25
-7 33 1 19 26 73 37 81 4 3 -8 29 -28 58 -24 34 -34 58 -30 69 4 10 8 34 10
55 2 31 -2 41 -21 53 -13 9 -27 13 -32 10 -6 -3 -12 3 -15 14 -3 11 -1 23 4
26 14 8 -1 74 -22 95 -11 11 -30 19 -44 19 -21 0 -23 3 -16 23 12 34 3 46 -40
53 -33 6 -38 10 -34 25 5 14 1 19 -13 19 -18 0 -35 20 -37 45 -2 26 -19 35
-68 35 -38 0 -48 3 -40 11 9 9 3 21 -24 50 -28 30 -40 36 -57 29 -13 -5 -31
-2 -49 7 -19 9 -33 11 -44 4 -12 -6 -26 -5 -44 4 -15 8 -29 11 -32 8 -4 -3
-12 -1 -19 5 -9 7 -23 6 -47 -4z"/>
</g>
</svg>
